<svg width="320" height="253" viewBox="0 0 320 253" fill="none" xmlns="http://www.w3.org/2000/svg">
<g filter="url(#filter0_d_101_368)">
<path fill-rule="evenodd" clip-rule="evenodd" d="M313.497 36.4304C313.497 30.6699 308.827 26 303.066 26H16.933C11.1724 26 6.50259 30.6699 6.50259 36.4304V128.875C6.50259 131.775 4.15151 134.126 1.2513 134.126C-1.64891 134.126 -4 136.477 -4 139.377V233.57C-4 239.33 0.66985 244 6.43041 244H313.57C319.33 244 324 239.33 324 233.57V139.378C324 136.477 321.649 134.126 318.748 134.126C315.848 134.126 313.497 131.775 313.497 128.874V36.4304Z" fill="white"/>
</g>
<defs>
<filter id="filter0_d_101_368" x="-21.1552" y="0.0677118" width="362.31" height="252.31" filterUnits="userSpaceOnUse" color-interpolation-filters="sRGB">
<feFlood flood-opacity="0" result="BackgroundImageFix"/>
<feColorMatrix in="SourceAlpha" type="matrix" values="0 0 0 0 0 0 0 0 0 0 0 0 0 0 0 0 0 0 127 0" result="hardAlpha"/>
<feOffset dy="-8.77708"/>
<feGaussianBlur stdDeviation="8.5776"/>
<feComposite in2="hardAlpha" operator="out"/>
<feColorMatrix type="matrix" values="0 0 0 0 0.412792 0 0 0 0 0.160521 0 0 0 0 0.558333 0 0 0 0.11 0"/>
<feBlend mode="normal" in2="BackgroundImageFix" result="effect1_dropShadow_101_368"/>
<feBlend mode="normal" in="SourceGraphic" in2="effect1_dropShadow_101_368" result="shape"/>
</filter>
</defs>
</svg>
