<svg width="21" height="22" viewBox="0 0 21 22" fill="none" xmlns="http://www.w3.org/2000/svg">
<path d="M14.5399 0.840088H5.78989C2.59989 0.840088 0.0098877 3.43009 0.0098877 6.62009V15.3701C0.0098877 18.5601 2.59989 21.1501 5.78989 21.1501H14.5399C17.7299 21.1501 20.3199 18.5601 20.3199 15.3701V6.62009C20.3199 3.43009 17.7299 0.840088 14.5399 0.840088ZM10.1599 16.2001C7.28989 16.2001 4.95989 13.8701 4.95989 11.0001C4.95989 8.13009 7.28989 5.80009 10.1599 5.80009C13.0299 5.80009 15.3599 8.13009 15.3599 11.0001C15.3699 13.8701 13.0299 16.2001 10.1599 16.2001ZM15.5899 6.75009C14.8999 6.75009 14.3399 6.19009 14.3399 5.50009C14.3399 4.81009 14.8999 4.25009 15.5899 4.25009C16.2799 4.25009 16.8399 4.81009 16.8399 5.50009C16.8399 6.19009 16.2799 6.75009 15.5899 6.75009Z" fill="#4896D2"/>
</svg>
