<svg width="41" height="41" viewBox="0 0 41 41" fill="none" xmlns="http://www.w3.org/2000/svg">
<path d="M20.2716 13.8584C16.4789 13.8584 13.4011 16.9362 13.4011 20.7288C13.4011 24.5215 16.4789 27.5993 20.2716 27.5993C24.0642 27.5993 27.142 24.5215 27.142 20.7288C27.142 16.9362 24.0642 13.8584 20.2716 13.8584Z" fill="#4896D2"/>
<path d="M28.9696 0.553955H11.5949C5.26059 0.553955 0.117676 5.69686 0.117676 12.0312V29.4058C0.117676 35.7402 5.26059 40.8831 11.5949 40.8831H28.9696C35.3039 40.8831 40.4468 35.7402 40.4468 29.4058V12.0312C40.4468 5.69686 35.3039 0.553955 28.9696 0.553955ZM20.2723 31.054C14.5734 31.054 9.94678 26.4273 9.94678 20.7284C9.94678 15.0295 14.5734 10.4029 20.2723 10.4029C25.9712 10.4029 30.5978 15.0295 30.5978 20.7284C30.6177 26.4273 25.9712 31.054 20.2723 31.054ZM31.0545 12.2893C29.6844 12.2893 28.5724 11.1773 28.5724 9.80721C28.5724 8.43709 29.6844 7.32511 31.0545 7.32511C32.4246 7.32511 33.5366 8.43709 33.5366 9.80721C33.5366 11.1773 32.4246 12.2893 31.0545 12.2893Z" fill="#4896D2"/>
<path d="M20.2716 27.5993C16.4789 27.5993 13.4011 24.5215 13.4011 20.7288C13.4011 16.9362 16.4789 13.8584 20.2716 13.8584C24.0642 13.8584 27.142 16.9362 27.142 20.7288C27.142 24.5215 24.0642 27.5993 20.2716 27.5993Z" fill="#4896D2"/>
</svg>
