<svg width="24" height="14" viewBox="0 0 24 14" fill="none" xmlns="http://www.w3.org/2000/svg">
<path d="M11.75 13.6299H13.15C13.15 13.6299 13.57 13.5799 13.79 13.3499C13.99 13.1399 13.98 12.7299 13.98 12.7299C13.98 12.7299 13.95 10.8499 14.83 10.5699C15.69 10.2999 16.8 12.3899 17.97 13.1899C18.86 13.7999 19.53 13.6699 19.53 13.6699L22.66 13.6299C22.66 13.6299 24.3 13.5299 23.52 12.2399C23.46 12.1299 23.07 11.2899 21.19 9.5399C19.22 7.7199 19.49 8.0099 21.86 4.8599C23.3 2.9399 23.88 1.7699 23.7 1.2599C23.53 0.779901 22.47 0.909901 22.47 0.909901L18.94 0.929901C18.94 0.929901 18.68 0.889901 18.48 1.0099C18.29 1.1199 18.17 1.3899 18.17 1.3899C18.17 1.3899 17.61 2.8799 16.87 4.1399C15.3 6.8099 14.67 6.9499 14.41 6.7799C13.81 6.3899 13.96 5.2299 13.96 4.3999C13.96 1.8099 14.35 0.739901 13.2 0.459901C12.82 0.369901 12.53 0.309901 11.55 0.299901C10.29 0.289901 9.23003 0.299901 8.62004 0.599901C8.22004 0.799901 7.91004 1.2299 8.10004 1.2599C8.33004 1.2899 8.86003 1.3999 9.14003 1.7799C9.50003 2.2699 9.49004 3.3799 9.49004 3.3799C9.49004 3.3799 9.70004 6.4199 9.00004 6.7999C8.52004 7.0599 7.87004 6.5299 6.47004 4.1099C5.75004 2.8699 5.21003 1.4999 5.21003 1.4999C5.21003 1.4999 5.11003 1.2399 4.92003 1.1099C4.69003 0.9399 4.38003 0.889901 4.38003 0.889901L1.03003 0.909901C1.03003 0.909901 0.530035 0.919901 0.340035 1.1399C0.180035 1.3299 0.330035 1.7399 0.330035 1.7399C0.330035 1.7399 2.95004 7.8799 5.93004 10.9799C8.65003 13.8199 11.75 13.6299 11.75 13.6299Z" fill="#4896D2"/>
</svg>
