<svg width="20" height="16" viewBox="0 0 20 16" fill="none" xmlns="http://www.w3.org/2000/svg">
<path d="M3.40001 0C2.55132 0 1.73739 0.337142 1.13727 0.937258C0.537154 1.53737 0.200012 2.35131 0.200012 3.2V3.5216L9.80001 8.6912L19.4 3.5232V3.2C19.4 2.35131 19.0629 1.53737 18.4628 0.937258C17.8626 0.337142 17.0487 0 16.2 0H3.40001ZM19.4 5.3392L10.1792 10.304C10.0627 10.3667 9.93237 10.3996 9.80001 10.3996C9.66765 10.3996 9.53736 10.3667 9.42081 10.304L0.200012 5.3392V12.8C0.200012 13.6487 0.537154 14.4626 1.13727 15.0627C1.73739 15.6629 2.55132 16 3.40001 16H16.2C17.0487 16 17.8626 15.6629 18.4628 15.0627C19.0629 14.4626 19.4 13.6487 19.4 12.8V5.3392Z" fill="#D9D9D9"/>
</svg>
