<svg width="13" height="11" viewBox="0 0 13 11" fill="none" xmlns="http://www.w3.org/2000/svg">
<path d="M2.27612 0.0361328C1.70904 0.0361328 1.16519 0.261405 0.764198 0.662392C0.363211 1.06338 0.137939 1.60723 0.137939 2.17431V2.3892L6.55249 5.84344L12.967 2.39027V2.17431C12.967 1.60723 12.7418 1.06338 12.3408 0.662392C11.9398 0.261405 11.3959 0.0361328 10.8288 0.0361328H2.27612ZM12.967 3.60369L6.80586 6.92108C6.72799 6.963 6.64093 6.98494 6.55249 6.98494C6.46404 6.98494 6.37699 6.963 6.29911 6.92108L0.137939 3.60369V8.58886C0.137939 9.15594 0.363211 9.6998 0.764198 10.1008C1.16519 10.5018 1.70904 10.727 2.27612 10.727H10.8288C11.3959 10.727 11.9398 10.5018 12.3408 10.1008C12.7418 9.6998 12.967 9.15594 12.967 8.58886V3.60369Z" fill="#4896D2"/>
</svg>
